<svg width="114" height="38" viewBox="0 0 114 38" fill="none" xmlns="http://www.w3.org/2000/svg">
<path d="M102.209 19.0232L113.863 0.0471314H106.126C105.573 0.984493 104.93 2.01536 104.238 3.08804C103.547 4.21394 102.902 5.29271 102.211 6.41404C101.519 7.53538 100.875 8.6187 100.23 9.69366C99.5853 10.7686 98.9403 11.7554 98.388 12.6456L90.6949 0H82.8649C84.7535 3.09261 86.6876 6.23387 88.7152 9.4656C90.7427 12.6973 92.6761 15.8378 94.519 18.8833L82.8186 38H90.511L98.4329 25.2548L106.355 38H114L102.209 19.0232Z" fill="white"/>
<path d="M48.0439 15.1804C46.202 13.9069 44.0537 13.1682 41.8301 13.0436C39.6064 12.9191 37.3914 13.4133 35.4232 14.4734C33.4549 15.5334 31.8079 17.119 30.6592 19.0598C29.5105 21.0007 28.9036 23.2233 28.9036 25.4887C28.9036 27.7541 29.5105 29.9768 30.6592 31.9176C31.8079 33.8584 33.4549 35.4441 35.4232 36.5041C37.3914 37.5641 39.6064 38.0584 41.8301 37.9338C44.0537 37.8092 46.202 37.0705 48.0439 35.797V37.3433H53.433V5.80908H48.0439V15.1804ZM41.1347 31.8613C39.8957 31.8613 38.6846 31.4876 37.6544 30.7874C36.6243 30.0872 35.8214 29.092 35.3473 27.9276C34.8731 26.7633 34.7491 25.482 34.9908 24.2459C35.2325 23.0098 35.8291 21.8744 36.7052 20.9832C37.5812 20.0921 38.6974 19.4852 39.9126 19.2393C41.1277 18.9934 42.3872 19.1196 43.5319 19.6019C44.6765 20.0842 45.6549 20.901 46.3432 21.9489C47.0315 22.9968 47.3989 24.2288 47.3989 25.4891C47.3988 26.326 47.2367 27.1546 46.9217 27.9277C46.6068 28.7009 46.1452 29.4033 45.5634 29.995C44.9815 30.5866 44.2908 31.0559 43.5307 31.376C42.7705 31.6961 41.9559 31.8608 41.1332 31.8606L41.1347 31.8613Z" fill="white"/>
<path d="M20.6813 14.1501V23.8051C20.5831 25.6875 19.7892 27.4626 18.4587 28.7747C17.1282 30.0867 15.3594 30.8389 13.5067 30.8803C11.654 30.9218 9.85443 30.2495 8.46851 28.9981C7.08259 27.7468 6.21275 26.0089 6.03331 24.1327H5.98772V14.1501H0V24.1304C0.177129 27.6002 1.65687 30.8684 4.13388 33.2607C6.61088 35.6529 9.89613 36.9867 13.3117 36.9867C16.7273 36.9867 20.0125 35.6529 22.4895 33.2607C24.9665 30.8684 26.4463 27.6002 26.6234 24.1304V14.1501H20.6813Z" fill="white"/>
<path d="M76.6461 14.6183V24.2732C76.548 26.1556 75.7543 27.9308 74.4238 29.243C73.0934 30.5552 71.3246 31.3074 69.4719 31.3489C67.6192 31.3905 65.8196 30.7183 64.4336 29.467C63.0476 28.2157 62.1777 26.4778 61.9982 24.6016H61.9518V14.6183H55.9648V24.5986C56.142 28.0683 57.6217 31.3366 60.0987 33.7288C62.5757 36.1211 65.861 37.4548 69.2765 37.4548C72.6921 37.4548 75.9774 36.1211 78.4544 33.7288C80.9314 31.3366 82.4111 28.0683 82.5882 24.5986V14.6183H76.6461Z" fill="white"/>
</svg>
